<?xml version="1.0" standalone="no"?><!DOCTYPE svg PUBLIC "-//W3C//DTD SVG 1.1//EN" "http://www.w3.org/Graphics/SVG/1.1/DTD/svg11.dtd"><svg t="1612603958921" class="icon" viewBox="0 0 1024 1024" version="1.1" xmlns="http://www.w3.org/2000/svg" p-id="7978" xmlns:xlink="http://www.w3.org/1999/xlink" width="200" height="200"><defs><style type="text/css"></style></defs><path d="M492 318.829C492 403.975 422.975 473 337.829 473h-98.658C154.025 473 85 403.975 85 318.829v-98.658C85 135.025 154.025 66 239.171 66h98.658C422.975 66 492 135.025 492 220.171v98.658z m-58-98.458C434 167.699 391.301 125 338.629 125h-99.258C186.699 125 144 167.699 144 220.371v99.258C144 372.301 186.699 415 239.371 415h99.258C391.301 415 434 372.301 434 319.629v-99.258zM958 318.829C958 403.975 888.975 473 803.829 473h-98.658C620.025 473 551 403.975 551 318.829v-98.658C551 135.025 620.025 66 705.171 66h98.658C888.975 66 958 135.025 958 220.171v98.658z m-58-98.458C900 167.699 857.301 125 804.629 125h-99.258C652.699 125 610 167.699 610 220.371v99.258C610 372.301 652.699 415 705.371 415h99.258C857.301 415 900 372.301 900 319.629v-99.258zM287.516 955.219c-41.181-0.001-79.896-16.037-109.016-45.155l-69.846-69.848c-29.119-29.117-45.156-67.834-45.156-109.014 0-41.18 16.037-79.896 45.156-109.015L178.5 552.34c29.119-29.12 67.835-45.156 109.016-45.156 41.18 0 79.896 16.037 109.015 45.156l69.846 69.846c29.119 29.119 45.156 67.835 45.156 109.015 0 41.18-16.037 79.897-45.156 109.016l-69.846 69.847c-29.12 29.118-67.835 45.153-109.015 45.155z m0-389.235c-25.475 0-49.425 9.92-67.438 27.934l-69.846 69.847c-18.013 18.012-27.934 41.963-27.934 67.437 0 25.474 9.92 49.425 27.934 67.437l69.846 69.848c18.013 18.012 41.963 27.933 67.438 27.933 25.474 0 49.424-9.921 67.437-27.934l69.846-69.845c18.013-18.013 27.934-41.964 27.934-67.438 0-25.474-9.92-49.425-27.934-67.437l-69.846-69.847c-18.013-18.015-41.963-27.935-67.437-27.935zM958 780.829C958 865.975 888.975 935 803.829 935h-98.658C620.025 935 551 865.975 551 780.829v-98.658C551 597.025 620.025 528 705.171 528h98.658C888.975 528 958 597.025 958 682.171v98.658z m-58-99.458C900 628.699 857.301 586 804.629 586h-99.258C652.699 586 610 628.699 610 681.371v99.258C610 833.301 652.699 876 705.371 876h99.258C857.301 876 900 833.301 900 780.629v-99.258z" fill="#d81e06" p-id="7979"></path></svg>