<?xml version="1.0" standalone="no"?><!DOCTYPE svg PUBLIC "-//W3C//DTD SVG 1.1//EN" "http://www.w3.org/Graphics/SVG/1.1/DTD/svg11.dtd"><svg t="1612603798101" class="icon" viewBox="0 0 1024 1024" version="1.1" xmlns="http://www.w3.org/2000/svg" p-id="1982" xmlns:xlink="http://www.w3.org/1999/xlink" width="200" height="200"><defs><style type="text/css"></style></defs><path d="M429.95741997 832.30739698a12.19057644 12.19057644 0 0 1-12.19057646-12.19057644V627.62761763a36.57172936 36.57172936 0 0 1 39.9850912-37.30316346h113.49426732a36.57172936 36.57172936 0 0 1 36.57172936 36.57172935v192.61110826a12.19057644 12.19057644 0 0 1-24.3811529 0V626.53046613a12.19057644 12.19057644 0 0 0-12.19057647-12.19057644h-113.49426731c-5.85147686 0-15.60393762 1.70668091-15.60393763 12.92201123v192.85491962a12.19057644 12.19057644 0 0 1-12.19057712 12.19057644z" fill="#333333" p-id="1983"></path><path d="M746.79050311 859.24857094H623.54377503a37.18125812 37.18125812 0 0 1-40.10699654-36.57172936 12.19057644 12.19057644 0 1 1 24.3811529 0c0 11.21533032 12.19057644 12.19057644 15.72584365 12.19057645h123.24672807a12.19057644 12.19057644 0 0 0 12.19057646-12.19057645V526.81155017a36.57172936 36.57172936 0 0 1 9.63055541-24.38115291l21.5773205-23.52781211a12.19057644 12.19057644 0 0 0 0-16.82299581L520.41149791 192.30213177a12.19057644 12.19057644 0 0 0-17.18871321 0L234.17676191 461.34815458a12.19057644 12.19057644 0 0 0 0 17.06680717l22.43066061 23.40590676A36.57172936 36.57172936 0 0 1 267.21322408 527.05536222V822.67684158a12.19057644 12.19057644 0 0 0 12.19057646 12.19057645h122.63719933c3.6571732 0 15.72584364-0.97524614 15.72584363-12.19057645a12.19057644 12.19057644 0 0 1 24.38115358 0 37.18125812 37.18125812 0 0 1-40.10699721 36.57172936H279.40380054a36.57172936 36.57172936 0 0 1-36.57172937-36.57172936V527.05536222a12.19057644 12.19057644 0 0 0-3.41336115-8.41149791L216.37852063 495.35986289a36.57172936 36.57172936 0 0 1 1e-8-51.20042085L485.91216617 175.11341925a36.57172936 36.57172936 0 0 1 51.68804424-1e-8L807.01195062 444.76897081a36.57172936 36.57172936 0 0 1 1.09715216 50.59089208l-21.5773205 23.1620954a12.19057644 12.19057644 0 0 0-3.16954981 8.28959188V822.67684158a36.57172936 36.57172936 0 0 1-36.57172936 36.57172936z" fill="#333333" p-id="1984"></path></svg>