<?xml version="1.0" standalone="no"?><!DOCTYPE svg PUBLIC "-//W3C//DTD SVG 1.1//EN" "http://www.w3.org/Graphics/SVG/1.1/DTD/svg11.dtd"><svg t="1612603983622" class="icon" viewBox="0 0 1024 1024" version="1.1" xmlns="http://www.w3.org/2000/svg" p-id="8993" xmlns:xlink="http://www.w3.org/1999/xlink" width="200" height="200"><defs><style type="text/css"></style></defs><path d="M920.863309 724.977266a103.136691 103.136691 0 0 0-82.65669 41.181007H402.159424l-32.119712-159.714532H920.863309a29.467626 29.467626 0 0 0 28.878274-23.574101l66.302158-325.764604a29.467626 29.467626 0 0 0-28.878273-35.361151H292.687194l-22.763741-113.303022a29.467626 29.467626 0 0 0-28.878273-23.647769H29.467626a29.467626 29.467626 0 0 0 0 58.935251h187.48777l118.754532 590.973238a98.716547 98.716547 0 0 0-21.511367-2.35741 103.799712 103.799712 0 1 0 103.136691 92.749352H817.726619v3.315108a103.136691 103.136691 0 1 0 103.13669-103.136691z m30.204317-444.298129l-54.515108 266.829352H358.178993L304.547914 280.679137z m-636.869065 599.592518a44.201439 44.201439 0 1 1 44.201439-44.201439 44.201439 44.201439 0 0 1-44.201439 44.201439z m606.370072-7.366907a44.201439 44.201439 0 1 1 44.201439-44.201439 44.201439 44.201439 0 0 1-43.906763 44.201439z" fill="#d81e06" p-id="8994"></path></svg>